<?xml version="1.0" encoding="utf-8"?>
<!-- Generator: Adobe Illustrator 23.0.3, SVG Export Plug-In . SVG Version: 6.00 Build 0)  -->
<svg version="1.1" id="Layer_1" xmlns="http://www.w3.org/2000/svg" xmlns:xlink="http://www.w3.org/1999/xlink" x="0px" y="0px"
	 viewBox="0 0 1200 1200" enable-background="new 0 0 1200 1200" xml:space="preserve">
<g>
	<g>
		<g>
			<path fill="#383135" d="M50,907.609c0,23.315,18.895,42.211,42.205,42.211h1015.589c23.311-0.001,42.206-18.896,42.206-42.211
				V289.253c0-23.311-18.895-42.216-42.206-42.216H92.205c-23.31,0-42.205,18.905-42.205,42.216V907.609z"/>
		</g>
		<g>
			<polygon fill="#F5E9DC" points="1075.653,766.491 1075.653,352.97 1034.927,309.18 157.955,309.18 121.303,346.853 
				121.303,764.448 			"/>
		</g>
		<g>
			<rect x="121.303" y="455.067" fill="#5DD0D9" width="954.35" height="226.503"/>
		</g>
		<g>
			<rect x="121.303" y="701.716" fill="#5DD0D9" width="954.35" height="14.907"/>
		</g>
		<g>
			<rect x="121.303" y="733.296" fill="#5DD0D9" width="954.35" height="14.284"/>
		</g>
		<g>
			<path fill="#F5E9DC" d="M978.902,952.963c-1.022-3.113-46.866-166.109-46.866-166.109H250.643L204.82,951.941L978.902,952.963z"
				/>
		</g>
		<g>
			<g>
				<path fill="#383135" d="M835.273,901.959c0-14.624,11.863-26.486,26.491-26.486c14.64,0,26.502,11.862,26.502,26.486
					c0,14.618-11.862,26.47-26.502,26.47C847.136,928.429,835.273,916.577,835.273,901.959z"/>
			</g>
			<g>
				<path fill="#383135" d="M306.669,901.959c0-14.624,11.862-26.486,26.491-26.486c14.607,0,26.47,11.862,26.47,26.486
					c0,14.618-11.863,26.47-26.47,26.47C318.531,928.429,306.669,916.577,306.669,901.959z"/>
			</g>
			<g>
				<path fill="#383135" d="M729.35,897.299c0,5.394,4.362,9.751,9.746,9.751h18.193c5.383,0,9.745-4.357,9.745-9.751v-19.215
					c0-5.373-4.362-9.74-9.745-9.74h-18.193c-5.384,0-9.746,4.367-9.746,9.74V897.299z"/>
			</g>
			<g>
				<path fill="#383135" d="M418.145,897.299c0,5.394,4.34,9.751,9.724,9.751h18.214c5.361,0,9.723-4.357,9.723-9.751v-19.215
					c0-5.373-4.362-9.74-9.723-9.74h-18.214c-5.384,0-9.724,4.367-9.724,9.74V897.299z"/>
			</g>
		</g>
		<g>
			<path fill="#383135" d="M841.401,480.288c0,0,85.549,6.097,85.549,94.71c0,88.624-100.837,80.474-110.008,80.474
				c-9.15,0-461.387,0-461.387,0s-84.528-1.021-84.528-82.496c0-81.484,65.175-94.731,89.613-94.731
				C385.089,478.245,841.401,480.288,841.401,480.288z"/>
		</g>
		<g>
			<rect x="477.778" y="503.706" fill="#F5E9DC" width="243.434" height="79.452"/>
		</g>
		<g>
			<path fill="#383135" d="M650.184,514.237c0,0-4.947,36.174,2.67,59.782h57.888v-60.154L650.184,514.237z"/>
		</g>
		<g>
			<path fill="#383135" d="M487.172,575.87v-63.782h14.821c1.362,11.937,4.511,45.152,0.223,63.782H487.172z"/>
		</g>
		<g>
			<g>
				<path fill="#F5E9DC" d="M293.689,566.859c0-36.003,29.183-65.186,65.175-65.186c36.014,0,65.197,29.183,65.197,65.186
					s-29.183,65.186-65.197,65.186C322.872,632.044,293.689,602.861,293.689,566.859z"/>
			</g>
			<g>
				<g>
					<polygon fill="#383135" points="339.884,515.962 349.8,512.259 345.416,500.609 335.501,504.311 					"/>
				</g>
				<g>
					<polygon fill="#383135" points="306.361,555.272 308.297,544.857 296.136,542.58 294.189,552.986 					"/>
				</g>
				<g>
					<polygon fill="#383135" points="323.659,607.436 316.063,600.075 307.392,608.969 314.967,616.352 					"/>
				</g>
				<g>
					<polygon fill="#383135" points="378.131,617.745 368.035,620.65 371.141,632.629 381.218,629.747 					"/>
				</g>
				<g>
					<polygon fill="#383135" points="412.943,576.476 410.666,586.732 422.677,589.723 424.976,579.477 					"/>
				</g>
				<g>
					<polygon fill="#383135" points="409.634,521.387 401.645,514.589 393.367,523.803 401.357,530.601 					"/>
				</g>
			</g>
		</g>
		<g>
			<g>
				<path fill="#F5E9DC" d="M769.13,566.859c0-36.003,29.183-65.186,65.197-65.186c35.992,0,65.175,29.183,65.175,65.186
					s-29.183,65.186-65.175,65.186C798.313,632.044,769.13,602.861,769.13,566.859z"/>
			</g>
			<g>
				<g>
					<polygon fill="#383135" points="815.325,515.962 825.241,512.259 820.868,500.609 810.953,504.311 					"/>
				</g>
				<g>
					<polygon fill="#383135" points="781.79,555.272 783.716,544.857 771.566,542.58 769.63,552.986 					"/>
				</g>
				<g>
					<polygon fill="#383135" points="799.101,607.436 791.504,600.075 782.855,608.969 790.43,616.352 					"/>
				</g>
				<g>
					<polygon fill="#383135" points="853.573,617.745 843.498,620.65 846.583,632.629 856.679,629.747 					"/>
				</g>
				<g>
					<polygon fill="#383135" points="888.384,576.476 886.107,586.732 898.14,589.723 900.428,579.477 					"/>
				</g>
				<g>
					<polygon fill="#383135" points="885.096,521.387 877.106,514.589 868.829,523.803 876.819,530.601 					"/>
				</g>
			</g>
		</g>
		<g>
			<rect x="290.458" y="351.072" fill="#FFFFFF" width="609.97" height="73.193"/>
		</g>
		<g>
			<g>
				<path fill="#383135" d="M315.527,409.246c-0.28,0-0.56-0.128-0.776-0.323c-0.086-0.107-0.172-0.216-0.215-0.344
					c-0.065-0.129-0.086-0.281-0.086-0.41c0-0.15,0.021-0.28,0.086-0.409c0.042-0.129,0.128-0.258,0.215-0.366
					c0.303-0.28,0.776-0.387,1.184-0.216c0.13,0.043,0.259,0.129,0.345,0.216c0.107,0.108,0.173,0.237,0.238,0.366
					c0.065,0.129,0.086,0.259,0.086,0.409c0,0.129-0.021,0.281-0.086,0.41c-0.065,0.128-0.13,0.237-0.238,0.344
					c-0.086,0.108-0.215,0.172-0.345,0.238C315.807,409.204,315.655,409.246,315.527,409.246z"/>
			</g>
			<g>
				<path fill="#383135" d="M870.986,408.169c0-0.603,0.475-1.077,1.077-1.077l0,0c0.583,0,1.077,0.474,1.077,1.077l0,0
					c0,0.582-0.494,1.077-1.077,1.077l0,0C871.462,409.246,870.986,408.751,870.986,408.169z M862.414,408.169
					c0-0.603,0.494-1.077,1.077-1.077l0,0c0.602,0,1.077,0.474,1.077,1.077l0,0c0,0.582-0.475,1.077-1.077,1.077l0,0
					C862.908,409.246,862.414,408.751,862.414,408.169z M853.86,408.169c0-0.603,0.475-1.077,1.077-1.077l0,0
					c0.583,0,1.077,0.474,1.077,1.077l0,0c0,0.582-0.494,1.077-1.077,1.077l0,0C854.335,409.246,853.86,408.751,853.86,408.169z
					 M845.287,408.169c0-0.603,0.473-1.077,1.077-1.077l0,0c0.604,0,1.077,0.474,1.077,1.077l0,0c0,0.582-0.473,1.077-1.077,1.077
					l0,0C845.761,409.246,845.287,408.751,845.287,408.169z M836.736,408.169c0-0.603,0.473-1.077,1.077-1.077l0,0
					c0.581,0,1.077,0.474,1.077,1.077l0,0c0,0.582-0.496,1.077-1.077,1.077l0,0C837.209,409.246,836.736,408.751,836.736,408.169z
					 M828.161,408.169c0-0.603,0.496-1.077,1.077-1.077l0,0c0.604,0,1.077,0.474,1.077,1.077l0,0c0,0.582-0.473,1.077-1.077,1.077
					l0,0C828.658,409.246,828.161,408.751,828.161,408.169z M819.609,408.169c0-0.603,0.473-1.077,1.077-1.077l0,0
					c0.581,0,1.077,0.474,1.077,1.077l0,0c0,0.582-0.496,1.077-1.077,1.077l0,0C820.083,409.246,819.609,408.751,819.609,408.169z
					 M811.035,408.169c0-0.603,0.496-1.077,1.077-1.077l0,0c0.604,0,1.077,0.474,1.077,1.077l0,0c0,0.582-0.473,1.077-1.077,1.077
					l0,0C811.531,409.246,811.035,408.751,811.035,408.169z M802.483,408.169c0-0.603,0.473-1.077,1.077-1.077l0,0
					c0.583,0,1.077,0.474,1.077,1.077l0,0c0,0.582-0.494,1.077-1.077,1.077l0,0C802.957,409.246,802.483,408.751,802.483,408.169z
					 M793.911,408.169c0-0.603,0.494-1.077,1.077-1.077l0,0c0.602,0,1.077,0.474,1.077,1.077l0,0c0,0.582-0.475,1.077-1.077,1.077
					l0,0C794.405,409.246,793.911,408.751,793.911,408.169z M785.357,408.169c0-0.603,0.475-1.077,1.077-1.077l0,0
					c0.583,0,1.077,0.474,1.077,1.077l0,0c0,0.582-0.494,1.077-1.077,1.077l0,0C785.832,409.246,785.357,408.751,785.357,408.169z
					 M776.784,408.169c0-0.603,0.494-1.077,1.098-1.077l0,0c0.581,0,1.056,0.474,1.056,1.077l0,0c0,0.582-0.475,1.077-1.056,1.077
					l0,0C777.279,409.246,776.784,408.751,776.784,408.169z M768.231,408.169c0-0.603,0.475-1.077,1.077-1.077l0,0
					c0.604,0,1.077,0.474,1.077,1.077l0,0c0,0.582-0.473,1.077-1.077,1.077l0,0C768.706,409.246,768.231,408.751,768.231,408.169z
					 M759.679,408.169c0-0.603,0.473-1.077,1.077-1.077l0,0c0.583,0,1.077,0.474,1.077,1.077l0,0c0,0.582-0.494,1.077-1.077,1.077
					l0,0C760.152,409.246,759.679,408.751,759.679,408.169z M751.106,408.169c0-0.603,0.494-1.077,1.077-1.077l0,0
					c0.602,0,1.077,0.474,1.077,1.077l0,0c0,0.582-0.475,1.077-1.077,1.077l0,0C751.601,409.246,751.106,408.751,751.106,408.169z
					 M742.553,408.169c0-0.603,0.475-1.077,1.077-1.077l0,0c0.583,0,1.077,0.474,1.077,1.077l0,0c0,0.582-0.494,1.077-1.077,1.077
					l0,0C743.028,409.246,742.553,408.751,742.553,408.169z M733.98,408.169c0-0.603,0.494-1.077,1.077-1.077l0,0
					c0.604,0,1.077,0.474,1.077,1.077l0,0c0,0.582-0.473,1.077-1.077,1.077l0,0C734.474,409.246,733.98,408.751,733.98,408.169z
					 M725.429,408.169c0-0.603,0.473-1.077,1.077-1.077l0,0c0.581,0,1.077,0.474,1.077,1.077l0,0c0,0.582-0.496,1.077-1.077,1.077
					l0,0C725.902,409.246,725.429,408.751,725.429,408.169z M716.875,408.169c0-0.603,0.475-1.077,1.056-1.077l0,0
					c0.604,0,1.077,0.474,1.077,1.077l0,0c0,0.582-0.473,1.077-1.077,1.077l0,0C717.35,409.246,716.875,408.751,716.875,408.169z
					 M708.302,408.169c0-0.603,0.473-1.077,1.077-1.077l0,0c0.581,0,1.077,0.474,1.077,1.077l0,0c0,0.582-0.496,1.077-1.077,1.077
					l0,0C708.776,409.246,708.302,408.751,708.302,408.169z M699.727,408.169c0-0.603,0.497-1.077,1.077-1.077l0,0
					c0.604,0,1.077,0.474,1.077,1.077l0,0c0,0.582-0.473,1.077-1.077,1.077l0,0C700.224,409.246,699.727,408.751,699.727,408.169z
					 M691.176,408.169c0-0.603,0.473-1.077,1.077-1.077l0,0c0.604,0,1.077,0.474,1.077,1.077l0,0c0,0.582-0.473,1.077-1.077,1.077
					l0,0C691.649,409.246,691.176,408.751,691.176,408.169z M682.624,408.169c0-0.603,0.473-1.077,1.054-1.077l0,0
					c0.604,0,1.1,0.474,1.1,1.077l0,0c0,0.582-0.496,1.077-1.1,1.077l0,0C683.098,409.246,682.624,408.751,682.624,408.169z
					 M674.05,408.169c0-0.603,0.473-1.077,1.077-1.077l0,0c0.604,0,1.077,0.474,1.077,1.077l0,0c0,0.582-0.473,1.077-1.077,1.077
					l0,0C674.523,409.246,674.05,408.751,674.05,408.169z M665.498,408.169c0-0.603,0.473-1.077,1.077-1.077l0,0
					c0.581,0,1.056,0.474,1.056,1.077l0,0c0,0.582-0.475,1.077-1.056,1.077l0,0C665.971,409.246,665.498,408.751,665.498,408.169z
					 M656.923,408.169c0-0.603,0.496-1.077,1.077-1.077l0,0c0.604,0,1.077,0.474,1.077,1.077l0,0c0,0.582-0.473,1.077-1.077,1.077
					l0,0C657.42,409.246,656.923,408.751,656.923,408.169z M648.372,408.169c0-0.603,0.473-1.077,1.077-1.077l0,0
					c0.583,0,1.077,0.474,1.077,1.077l0,0c0,0.582-0.494,1.077-1.077,1.077l0,0C648.845,409.246,648.372,408.751,648.372,408.169z
					 M639.799,408.169c0-0.603,0.473-1.077,1.077-1.077l0,0c0.602,0,1.077,0.474,1.077,1.077l0,0c0,0.582-0.475,1.077-1.077,1.077
					l0,0C640.272,409.246,639.799,408.751,639.799,408.169z M631.245,408.169c0-0.603,0.475-1.077,1.077-1.077l0,0
					c0.583,0,1.077,0.474,1.077,1.077l0,0c0,0.582-0.494,1.077-1.077,1.077l0,0C631.721,409.246,631.245,408.751,631.245,408.169z
					 M622.673,408.169c0-0.603,0.494-1.077,1.077-1.077l0,0c0.604,0,1.077,0.474,1.077,1.077l0,0c0,0.582-0.473,1.077-1.077,1.077
					l0,0C623.167,409.246,622.673,408.751,622.673,408.169z M614.121,408.169c0-0.603,0.473-1.077,1.077-1.077l0,0
					c0.581,0,1.077,0.474,1.077,1.077l0,0c0,0.582-0.497,1.077-1.077,1.077l0,0C614.595,409.246,614.121,408.751,614.121,408.169z
					 M605.547,408.169c0-0.603,0.496-1.077,1.077-1.077l0,0c0.604,0,1.077,0.474,1.077,1.077l0,0c0,0.582-0.473,1.077-1.077,1.077
					l0,0C606.043,409.246,605.547,408.751,605.547,408.169z M596.995,408.169c0-0.603,0.473-1.077,1.077-1.077l0,0
					c0.602,0,1.077,0.474,1.077,1.077l0,0c0,0.582-0.475,1.077-1.077,1.077l0,0C597.468,409.246,596.995,408.751,596.995,408.169z
					 M588.42,408.169c0-0.603,0.496-1.077,1.077-1.077l0,0c0.604,0,1.077,0.474,1.077,1.077l0,0c0,0.582-0.473,1.077-1.077,1.077
					l0,0C588.917,409.246,588.42,408.751,588.42,408.169z M579.869,408.169c0-0.603,0.473-1.077,1.077-1.077l0,0
					c0.581,0,1.077,0.474,1.077,1.077l0,0c0,0.582-0.496,1.077-1.077,1.077l0,0C580.342,409.246,579.869,408.751,579.869,408.169z
					 M571.317,408.169c0-0.603,0.473-1.077,1.077-1.077l0,0c0.581,0,1.077,0.474,1.077,1.077l0,0c0,0.582-0.496,1.077-1.077,1.077
					l0,0C571.79,409.246,571.317,408.751,571.317,408.169z M562.742,408.169c0-0.603,0.473-1.077,1.077-1.077l0,0
					c0.604,0,1.077,0.474,1.077,1.077l0,0c0,0.582-0.473,1.077-1.077,1.077l0,0C563.216,409.246,562.742,408.751,562.742,408.169z
					 M554.191,408.169c0-0.603,0.473-1.077,1.077-1.077l0,0c0.581,0,1.077,0.474,1.077,1.077l0,0c0,0.582-0.497,1.077-1.077,1.077
					l0,0C554.664,409.246,554.191,408.751,554.191,408.169z M545.616,408.169c0-0.603,0.496-1.077,1.077-1.077l0,0
					c0.604,0,1.077,0.474,1.077,1.077l0,0c0,0.582-0.473,1.077-1.077,1.077l0,0C546.112,409.246,545.616,408.751,545.616,408.169z
					 M537.064,408.169c0-0.603,0.473-1.077,1.077-1.077l0,0c0.583,0,1.077,0.474,1.077,1.077l0,0c0,0.582-0.494,1.077-1.077,1.077
					l0,0C537.538,409.246,537.064,408.751,537.064,408.169z M528.492,408.169c0-0.603,0.494-1.077,1.077-1.077l0,0
					c0.602,0,1.077,0.474,1.077,1.077l0,0c0,0.582-0.475,1.077-1.077,1.077l0,0C528.986,409.246,528.492,408.751,528.492,408.169z
					 M519.938,408.169c0-0.603,0.475-1.077,1.077-1.077l0,0c0.583,0,1.077,0.474,1.077,1.077l0,0c0,0.582-0.494,1.077-1.077,1.077
					l0,0C520.414,409.246,519.938,408.751,519.938,408.169z M511.366,408.169c0-0.603,0.494-1.077,1.077-1.077l0,0
					c0.602,0,1.077,0.474,1.077,1.077l0,0c0,0.582-0.475,1.077-1.077,1.077l0,0C511.86,409.246,511.366,408.751,511.366,408.169z
					 M502.812,408.169c0-0.603,0.475-1.077,1.077-1.077l0,0c0.583,0,1.077,0.474,1.077,1.077l0,0c0,0.582-0.494,1.077-1.077,1.077
					l0,0C503.287,409.246,502.812,408.751,502.812,408.169z M494.239,408.169c0-0.603,0.494-1.077,1.098-1.077l0,0
					c0.583,0,1.056,0.474,1.056,1.077l0,0c0,0.582-0.473,1.077-1.056,1.077l0,0C494.734,409.246,494.239,408.751,494.239,408.169z
					 M485.688,408.169c0-0.603,0.473-1.077,1.077-1.077l0,0c0.602,0,1.077,0.474,1.077,1.077l0,0c0,0.582-0.475,1.077-1.077,1.077
					l0,0C486.161,409.246,485.688,408.751,485.688,408.169z M477.134,408.169c0-0.603,0.475-1.077,1.077-1.077l0,0
					c0.583,0,1.077,0.474,1.077,1.077l0,0c0,0.582-0.494,1.077-1.077,1.077l0,0C477.609,409.246,477.134,408.751,477.134,408.169z
					 M468.561,408.169c0-0.603,0.473-1.077,1.077-1.077l0,0c0.604,0,1.077,0.474,1.077,1.077l0,0c0,0.582-0.473,1.077-1.077,1.077
					l0,0C469.035,409.246,468.561,408.751,468.561,408.169z M460.01,408.169c0-0.603,0.473-1.077,1.077-1.077l0,0
					c0.581,0,1.054,0.474,1.054,1.077l0,0c0,0.582-0.473,1.077-1.054,1.077l0,0C460.483,409.246,460.01,408.751,460.01,408.169z
					 M451.435,408.169c0-0.603,0.496-1.077,1.077-1.077l0,0c0.604,0,1.077,0.474,1.077,1.077l0,0c0,0.582-0.473,1.077-1.077,1.077
					l0,0C451.932,409.246,451.435,408.751,451.435,408.169z M442.883,408.169c0-0.603,0.473-1.077,1.077-1.077l0,0
					c0.581,0,1.077,0.474,1.077,1.077l0,0c0,0.582-0.496,1.077-1.077,1.077l0,0C443.357,409.246,442.883,408.751,442.883,408.169z
					 M434.309,408.169c0-0.603,0.496-1.077,1.077-1.077l0,0c0.604,0,1.077,0.474,1.077,1.077l0,0c0,0.582-0.473,1.077-1.077,1.077
					l0,0C434.805,409.246,434.309,408.751,434.309,408.169z M425.757,408.169c0-0.603,0.473-1.077,1.077-1.077l0,0
					c0.581,0,1.077,0.474,1.077,1.077l0,0c0,0.582-0.496,1.077-1.077,1.077l0,0C426.23,409.246,425.757,408.751,425.757,408.169z
					 M417.182,408.169c0-0.603,0.496-1.077,1.077-1.077l0,0c0.604,0,1.077,0.474,1.077,1.077l0,0c0,0.582-0.473,1.077-1.077,1.077
					l0,0C417.679,409.246,417.182,408.751,417.182,408.169z M408.631,408.169c0-0.603,0.473-1.077,1.077-1.077l0,0
					c0.583,0,1.077,0.474,1.077,1.077l0,0c0,0.582-0.494,1.077-1.077,1.077l0,0C409.104,409.246,408.631,408.751,408.631,408.169z
					 M400.058,408.169c0-0.603,0.494-1.077,1.077-1.077l0,0c0.602,0,1.077,0.474,1.077,1.077l0,0c0,0.582-0.475,1.077-1.077,1.077
					l0,0C400.553,409.246,400.058,408.751,400.058,408.169z M391.505,408.169c0-0.603,0.475-1.077,1.077-1.077l0,0
					c0.604,0,1.077,0.474,1.077,1.077l0,0c0,0.582-0.473,1.077-1.077,1.077l0,0C391.98,409.246,391.505,408.751,391.505,408.169z
					 M382.953,408.169c0-0.603,0.473-1.077,1.056-1.077l0,0c0.604,0,1.098,0.474,1.098,1.077l0,0c0,0.582-0.494,1.077-1.098,1.077
					l0,0C383.426,409.246,382.953,408.751,382.953,408.169z M374.38,408.169c0-0.603,0.473-1.077,1.077-1.077l0,0
					c0.602,0,1.077,0.474,1.077,1.077l0,0c0,0.582-0.475,1.077-1.077,1.077l0,0C374.854,409.246,374.38,408.751,374.38,408.169z
					 M365.827,408.169c0-0.603,0.475-1.077,1.077-1.077l0,0c0.583,0,1.077,0.474,1.077,1.077l0,0c0,0.582-0.494,1.077-1.077,1.077
					l0,0C366.302,409.246,365.827,408.751,365.827,408.169z M357.254,408.169c0-0.603,0.494-1.077,1.077-1.077l0,0
					c0.602,0,1.077,0.474,1.077,1.077l0,0c0,0.582-0.475,1.077-1.077,1.077l0,0C357.748,409.246,357.254,408.751,357.254,408.169z
					 M348.7,408.169c0-0.603,0.475-1.077,1.077-1.077l0,0c0.583,0,1.077,0.474,1.077,1.077l0,0c0,0.582-0.494,1.077-1.077,1.077l0,0
					C349.176,409.246,348.7,408.751,348.7,408.169z M340.128,408.169c0-0.603,0.494-1.077,1.077-1.077l0,0
					c0.604,0,1.077,0.474,1.077,1.077l0,0c0,0.582-0.473,1.077-1.077,1.077l0,0C340.622,409.246,340.128,408.751,340.128,408.169z
					 M331.576,408.169c0-0.603,0.473-1.077,1.077-1.077l0,0c0.581,0,1.077,0.474,1.077,1.077l0,0c0,0.582-0.496,1.077-1.077,1.077
					l0,0C332.049,409.246,331.576,408.751,331.576,408.169z M323.001,408.169c0-0.603,0.496-1.077,1.077-1.077l0,0
					c0.604,0,1.077,0.474,1.077,1.077l0,0c0,0.582-0.473,1.077-1.077,1.077l0,0C323.498,409.246,323.001,408.751,323.001,408.169z"
					/>
			</g>
			<g>
				<path fill="#383135" d="M880.617,409.246c-0.13,0-0.282-0.042-0.41-0.085c-0.128-0.065-0.259-0.129-0.345-0.238
					c-0.107-0.107-0.194-0.216-0.236-0.344c-0.065-0.129-0.086-0.281-0.086-0.41c0-0.28,0.107-0.56,0.322-0.775
					c0.086-0.086,0.217-0.173,0.345-0.216c0.387-0.171,0.863-0.086,1.163,0.216c0.215,0.216,0.324,0.495,0.324,0.775
					c0,0.129-0.023,0.281-0.086,0.41c-0.044,0.128-0.13,0.237-0.238,0.344C881.177,409.118,880.897,409.246,880.617,409.246z"/>
			</g>
		</g>
		<g>
			<path fill="#FF7373" d="M170.607,409.656h49.807c2.424,0,4.389-1.965,4.389-4.389V355.46c0-2.424-1.965-4.389-4.389-4.389
				h-49.807c-2.424,0-4.389,1.965-4.389,4.389v49.807C166.218,407.691,168.183,409.656,170.607,409.656z"/>
		</g>
	</g>
</g>
</svg>
